<?xml version="1.0" encoding="UTF-8" standalone="no"?><svg id="visual" viewBox="0 0 960 540" width="960" height="540" xmlns="http://www.w3.org/2000/svg" xmlns:xlink="http://www.w3.org/1999/xlink" version="1.1"><path d="M396 0L388.5 12.8C381 25.7 366 51.3 351.5 77C337 102.7 323 128.3 311.5 154C300 179.7 291 205.3 282.2 231.2C273.3 257 264.7 283 279.3 308.8C294 334.7 332 360.3 338.5 386C345 411.7 320 437.3 316.3 463C312.7 488.7 330.3 514.3 339.2 527.2L348 540L0 540L0 527.2C0 514.3 0 488.7 0 463C0 437.3 0 411.7 0 386C0 360.3 0 334.7 0 308.8C0 283 0 257 0 231.2C0 205.3 0 179.7 0 154C0 128.3 0 102.7 0 77C0 51.3 0 25.7 0 12.8L0 0Z" fill="#00288d"></path><path d="M212 0L211.5 12.8C211 25.7 210 51.3 222.7 77C235.3 102.7 261.7 128.3 262.5 154C263.3 179.7 238.7 205.3 227.3 231.2C216 257 218 283 232.2 308.8C246.3 334.7 272.7 360.3 270.5 386C268.3 411.7 237.7 437.3 228.5 463C219.3 488.7 231.7 514.3 237.8 527.2L244 540L0 540L0 527.2C0 514.3 0 488.7 0 463C0 437.3 0 411.7 0 386C0 360.3 0 334.7 0 308.8C0 283 0 257 0 231.2C0 205.3 0 179.7 0 154C0 128.3 0 102.7 0 77C0 51.3 0 25.7 0 12.8L0 0Z" fill="#242aa9"></path><path d="M255 0L244.8 12.8C234.7 25.7 214.3 51.3 207 77C199.7 102.7 205.3 128.3 207.7 154C210 179.7 209 205.3 217.2 231.2C225.3 257 242.7 283 233.5 308.8C224.3 334.7 188.7 360.3 184.8 386C181 411.7 209 437.3 210.7 463C212.3 488.7 187.7 514.3 175.3 527.2L163 540L0 540L0 527.2C0 514.3 0 488.7 0 463C0 437.3 0 411.7 0 386C0 360.3 0 334.7 0 308.8C0 283 0 257 0 231.2C0 205.3 0 179.7 0 154C0 128.3 0 102.7 0 77C0 51.3 0 25.7 0 12.8L0 0Z" fill="#4429c3"></path><path d="M180 0L171 12.8C162 25.7 144 51.3 142.8 77C141.7 102.7 157.3 128.3 156.7 154C156 179.7 139 205.3 128 231.2C117 257 112 283 113.3 308.8C114.7 334.7 122.3 360.3 124.7 386C127 411.7 124 437.3 120.2 463C116.3 488.7 111.7 514.3 109.3 527.2L107 540L0 540L0 527.2C0 514.3 0 488.7 0 463C0 437.3 0 411.7 0 386C0 360.3 0 334.7 0 308.8C0 283 0 257 0 231.2C0 205.3 0 179.7 0 154C0 128.3 0 102.7 0 77C0 51.3 0 25.7 0 12.8L0 0Z" fill="#6521dc"></path><path d="M120 0L116 12.8C112 25.7 104 51.3 95 77C86 102.7 76 128.3 77.3 154C78.7 179.7 91.3 205.3 89.8 231.2C88.3 257 72.7 283 63.7 308.8C54.7 334.7 52.3 360.3 55.7 386C59 411.7 68 437.3 70.2 463C72.3 488.7 67.7 514.3 65.3 527.2L63 540L0 540L0 527.2C0 514.3 0 488.7 0 463C0 437.3 0 411.7 0 386C0 360.3 0 334.7 0 308.8C0 283 0 257 0 231.2C0 205.3 0 179.7 0 154C0 128.3 0 102.7 0 77C0 51.3 0 25.7 0 12.8L0 0Z" fill="#8900f3"></path></svg>