<?xml version="1.0" encoding="UTF-8" standalone="no"?><svg id="visual" viewBox="0 0 900 600" width="900" height="600" xmlns="http://www.w3.org/2000/svg" xmlns:xlink="http://www.w3.org/1999/xlink" version="1.1"><path d="M674 600L671 580C668 560 662 520 668 480C674 440 692 400 710 360C728 320 746 280 749 240C752 200 740 160 746 120C752 80 776 40 788 20L800 0L900 0L900 20C900 40 900 80 900 120C900 160 900 200 900 240C900 280 900 320 900 360C900 400 900 440 900 480C900 520 900 560 900 580L900 600Z" fill="#00288d"></path><path d="M593 600L588.5 580C584 560 575 520 581 480C587 440 608 400 617 360C626 320 623 280 623 240C623 200 626 160 635 120C644 80 659 40 666.5 20L674 0L801 0L789 20C777 40 753 80 747 120C741 160 753 200 750 240C747 280 729 320 711 360C693 400 675 440 669 480C663 520 669 560 672 580L675 600Z" fill="#1c2aa2"></path><path d="M467 600L444.5 580C422 560 377 520 357.5 480C338 440 344 400 353 360C362 320 374 280 383 240C392 200 398 160 392 120C386 80 368 40 359 20L350 0L675 0L667.5 20C660 40 645 80 636 120C627 160 624 200 624 240C624 280 627 320 618 360C609 400 588 440 582 480C576 520 585 560 589.5 580L594 600Z" fill="#342ab6"></path><path d="M314 600L302 580C290 560 266 520 243.5 480C221 440 200 400 200 360C200 320 221 280 245 240C269 200 296 160 288.5 120C281 80 239 40 218 20L197 0L351 0L360 20C369 40 387 80 393 120C399 160 393 200 384 240C375 280 363 320 354 360C345 400 339 440 358.5 480C378 520 423 560 445.5 580L468 600Z" fill="#4c28c9"></path><path d="M0 600L0 580C0 560 0 520 0 480C0 440 0 400 0 360C0 320 0 280 0 240C0 200 0 160 0 120C0 80 0 40 0 20L0 0L198 0L219 20C240 40 282 80 289.5 120C297 160 270 200 246 240C222 280 201 320 201 360C201 400 222 440 244.5 480C267 520 291 560 303 580L315 600Z" fill="#6521dc"></path></svg>